<svg width="1920" height="1260" viewBox="0 0 1920 1260" fill="none" xmlns="http://www.w3.org/2000/svg">
<g clip-path="url(#clip0_2_2)">
<path d="M32.5 1030.5L1 1038L0 0.5H1918.5V965.5H1861L1785.5 962.5H1749.5L1756.5 944.5L1767 909L1780 859.5V820L1773.5 795L1756.5 783L1724 780H1644.5L1636.5 774L1631.5 732L1624.5 714L1609.5 706L1530.5 691L1434 685L1329.5 682.5L1223 685L1110.5 691.5L1017 708L980 726L976.5 760.5V788.5L980 846.5L989 894.5L1004.5 945L1019 977.5L1012.5 987.5L994 990L963.5 995.5V987.5H951.5L942 993L938.5 1002.5L926.5 1005.5L908 995.5L879 993L860.5 990L850.5 995.5L823 993L785.5 999L751 993L720.5 990H677L636 987.5H613.5L579.5 982H558L545.5 977H527L514.5 982L510.5 994L504.5 990H488L478.5 1001.5L468 996.5L449 987.5H436L419.5 996.5L414.5 987.5V975.5L390.5 972L371 978.5L342.5 975.5L332 984L319.5 993.5L310.5 1006.5L291 987.5L278 999H246H222.5L203 993.5L187 999L174.5 1015L155.5 1022.5L129 1015L110 1030.5H85.5L71 1038L32.5 1030.5Z" fill="black"/>
<path d="M1644.5 820L1640.5 822.5L1633 867.5L1622.5 919L1610 954L1604 971.5L1617 977H1648.5H1681L1694 966L1712 930L1728 876V848.5L1717 830.5L1702.5 822.5L1644.5 820Z" fill="black"/>
<path d="M32.5 1030.5L1 1038L0 0.5H1918.5V965.5H1861L1785.5 962.5H1749.5L1756.5 944.5L1767 909L1780 859.5V820L1773.5 795L1756.5 783L1724 780H1644.5L1636.5 774L1631.5 732L1624.5 714L1609.5 706L1530.5 691L1434 685L1329.5 682.5L1223 685L1110.5 691.5L1017 708L980 726L976.5 760.5V788.5L980 846.5L989 894.5L1004.5 945L1019 977.5L1012.5 987.5L994 990L963.5 995.5V987.5H951.5L942 993L938.5 1002.5L926.5 1005.5L908 995.5L879 993L860.5 990L850.5 995.5L823 993L785.5 999L751 993L720.5 990H677L636 987.5H613.5L579.5 982H558L545.5 977H527L514.5 982L510.5 994L504.5 990H488L478.5 1001.5L468 996.5L449 987.5H436L419.5 996.5L414.5 987.5V975.5L390.5 972L371 978.5L342.5 975.5L332 984L319.5 993.5L310.5 1006.5L291 987.5L278 999H246H222.5L203 993.5L187 999L174.5 1015L155.5 1022.5L129 1015L110 1030.5H85.5L71 1038L32.5 1030.5Z" stroke="black"/>
<path d="M1644.5 820L1640.5 822.5L1633 867.5L1622.5 919L1610 954L1604 971.5L1617 977H1648.5H1681L1694 966L1712 930L1728 876V848.5L1717 830.5L1702.5 822.5L1644.5 820Z" stroke="black"/>
</g>
<defs>
<clipPath id="clip0_2_2">
<rect width="1920" height="1260" fill="white"/>
</clipPath>
</defs>
</svg>
